<svg xmlns="http://www.w3.org/2000/svg" xmlns:svg="http://www.w3.org/2000/svg" xmlns:xlink="http://www.w3.org/1999/xlink" id="svg4478" width="508.674" height="508.674" version="1.1" viewBox="0 0 476.882 476.882"><defs id="defs4480"><linearGradient id="linearGradient5415" x1="249.221" x2="249.221" y1="565.174" y2="1026.541" gradientTransform="matrix(1.0346012,0,0,1.0346012,101.81995,-475.41518)" gradientUnits="userSpaceOnUse" xlink:href="#linearGradient4281"/><linearGradient id="linearGradient4281"><stop id="stop4283" offset="0" stop-color="#8bc34a" stop-opacity="1"/><stop id="stop4285" offset="1" stop-color="#4caf50" stop-opacity="1"/></linearGradient><filter id="filter5159" width="1.06" height="1.06" x="-.03" y="-.03" color-interpolation-filters="sRGB"><feGaussianBlur id="feGaussianBlur5161" stdDeviation="5.961"/></filter></defs><metadata id="metadata4483"/><g id="layer2" display="inline"><rect id="rect5109" width="476.882" height="476.882" x="132.237" y="116.061" fill="#000" fill-opacity=".392" stroke="none" stroke-dasharray="none" stroke-dashoffset="0" stroke-linecap="round" stroke-linejoin="round" stroke-miterlimit="4" stroke-opacity="1" stroke-width="7" filter="url(#filter5159)" opacity="1" rx="103.46" ry="103.46" transform="translate(-129.52638,-112.75557)"/></g><g id="layer1" transform="translate(-129.52638,-112.75557)"><rect id="rect5367" width="476.882" height="476.882" x="128.237" y="110.061" fill="url(#linearGradient5415)" fill-opacity="1" stroke="none" stroke-dasharray="none" stroke-dashoffset="0" stroke-linecap="round" stroke-linejoin="round" stroke-miterlimit="4" stroke-opacity="1" stroke-width="7" opacity="1" rx="103.46" ry="103.46"/><path id="rect4477" fill="#000" fill-opacity=".392" stroke="none" stroke-dasharray="none" stroke-dashoffset="0" stroke-linecap="square" stroke-linejoin="round" stroke-miterlimit="4" stroke-opacity="1" stroke-width=".654" d="m 237.6656,242.68873 c -13.59438,0 -24.54018,10.94858 -24.54018,24.5501 l 0,115.87719 -41.92096,12.49572 c -13.02797,3.88345 -20.65006,16.62596 -17.09007,28.5703 l 1.68997,5.67057 c 3.55999,11.94434 16.91469,18.43319 29.94266,14.54974 l 27.3784,-8.16175 0,19.22676 c 0,13.60151 10.9458,24.55219 24.54018,24.55219 13.59438,0 24.53808,-10.95068 24.53808,-24.55219 l 0,-33.856 42.64255,-12.71116 0,46.56716 c 0,13.60151 10.9437,24.55219 24.53809,24.55219 13.59438,0 24.54017,-10.95068 24.54017,-24.55219 l 0,-61.19639 42.64256,-12.71116 0,73.90755 c 0,13.60151 10.94369,24.55219 24.53808,24.55219 13.59437,0 24.53808,-10.95068 24.53808,-24.55219 l 0,-88.53679 42.64255,-12.71116 0,101.24795 c 0,13.60151 10.9458,24.55219 24.54018,24.55219 13.59437,0 24.53808,-10.95068 24.53808,-24.55219 l 0,-115.87719 41.92097,-12.49572 c 13.02796,-3.88346 20.65006,-16.62595 17.09006,-28.57031 l -1.68998,-5.66846 c -3.55998,-11.94436 -16.91468,-18.4353 -29.94264,-14.55185 l -27.37841,8.16175 0,-19.22675 c 0,-13.60152 -10.94371,-24.5501 -24.53808,-24.5501 -13.59438,0 -24.54018,10.94858 -24.54018,24.5501 l 0,33.85599 -42.64255,12.71116 0,-46.56715 c 0,-13.60152 -10.94371,-24.5501 -24.53808,-24.5501 -13.59439,0 -24.53808,10.94858 -24.53808,24.5501 l 0,61.19639 -42.64256,12.71116 0,-73.90755 c 0,-13.60152 -10.94579,-24.5501 -24.54017,-24.5501 -13.59439,0 -24.53809,10.94858 -24.53809,24.5501 l 0,88.53678 -42.64255,12.71118 0,-101.24796 c 0,-13.60152 -10.9437,-24.5501 -24.53808,-24.5501 z" opacity="1"/><g id="g4465" transform="matrix(1.0708744,0,0,1.0709421,-51.360373,-5.857186)"><g id="g4293" transform="matrix(1.5276357,0,0,1.5283404,-193.38857,-341.38484)"><rect id="rect5381" width="30" height="145" x="283.032" y="367.37" fill="#fff" fill-opacity="1" stroke="#fff" stroke-dasharray="none" stroke-dashoffset="0" stroke-linecap="square" stroke-linejoin="round" stroke-miterlimit="4" stroke-opacity="1" stroke-width=".611" opacity="1" rx="15" ry="15"/><rect id="rect4267" width="30" height="145" x="339.099" y="367.37" fill="#fff" fill-opacity="1" stroke="#fff" stroke-dasharray="none" stroke-dashoffset="0" stroke-linecap="square" stroke-linejoin="round" stroke-miterlimit="4" stroke-opacity="1" stroke-width=".611" opacity="1" rx="15" ry="15"/><rect id="rect4269" width="30" height="145" x="395.166" y="367.37" fill="#fff" fill-opacity="1" stroke="#fff" stroke-dasharray="none" stroke-dashoffset="0" stroke-linecap="square" stroke-linejoin="round" stroke-miterlimit="4" stroke-opacity="1" stroke-width=".611" opacity="1" rx="15" ry="15"/><rect id="rect4271" width="30" height="145" x="451.233" y="367.37" fill="#fff" fill-opacity="1" stroke="#fff" stroke-dasharray="none" stroke-dashoffset="0" stroke-linecap="square" stroke-linejoin="round" stroke-miterlimit="4" stroke-opacity="1" stroke-width=".611" opacity="1" rx="15" ry="15"/></g><rect id="rect4273" width="47.539" height="429.298" x="404.838" y="-494.238" fill="#fff" fill-opacity="1" stroke="#fff" stroke-dasharray="none" stroke-dashoffset="0" stroke-linecap="square" stroke-linejoin="round" stroke-miterlimit="4" stroke-opacity="1" stroke-width=".934" opacity="1" rx="21.007" ry="22.915" transform="matrix(0.28564781,0.95833466,-0.95833466,0.28564781,0,0)"/></g></g></svg>