<svg xmlns="http://www.w3.org/2000/svg" xmlns:svg="http://www.w3.org/2000/svg" xmlns:xlink="http://www.w3.org/1999/xlink" id="svg4478" width="533.09" height="533.09" version="1.1" viewBox="0 0 499.772 499.772"><defs id="defs4480"><linearGradient id="linearGradient4281"><stop id="stop4283" offset="0" stop-color="#2aa198" stop-opacity="1"/><stop id="stop4285" offset="1" stop-color="#268bd2" stop-opacity="1"/></linearGradient><filter id="filter5092" width="1.048" height="1.048" x="-.024" y="-.024" color-interpolation-filters="sRGB"><feGaussianBlur id="feGaussianBlur5094" stdDeviation="4.769"/></filter><linearGradient id="linearGradient5415" x1="249.221" x2="249.221" y1="565.174" y2="1026.541" gradientTransform="matrix(1.0346011,0,0,1.0346011,103.10918,-472.72078)" gradientUnits="userSpaceOnUse" xlink:href="#linearGradient4281"/></defs><metadata id="metadata4483"/><g id="layer1" transform="translate(-124.08122,-107.31041)"><rect id="rect5365" width="476.882" height="476.882" x="135.526" y="118.756" fill="#0e3532" fill-opacity=".549" stroke="none" stroke-dasharray="none" stroke-dashoffset="0" stroke-linecap="round" stroke-linejoin="round" stroke-miterlimit="4" stroke-opacity="1" stroke-width="7" filter="url(#filter5092)" opacity="1" rx="103.46" ry="103.46"/><rect id="rect5367" width="476.882" height="476.882" x="129.526" y="112.756" fill="url(#linearGradient5415)" fill-opacity="1" stroke="none" stroke-dasharray="none" stroke-dashoffset="0" stroke-linecap="round" stroke-linejoin="round" stroke-miterlimit="4" stroke-opacity="1" stroke-width="7" opacity="1" rx="103.46" ry="103.46"/><g id="g5598" transform="translate(-2234.1109,-122.71608)"><g id="g5526" fill="#000" fill-opacity=".392" stroke="none" transform="translate(6,6)"><rect id="rect5498" width="30" height="145" x="2585.859" y="303.925" fill="#000" fill-opacity=".392" stroke="none" stroke-dasharray="none" stroke-dashoffset="0" stroke-linecap="square" stroke-linejoin="round" stroke-miterlimit="4" stroke-opacity="1" stroke-width="1" opacity="1" rx="15" ry="15"/><rect id="rect5500" width="90" height="30" x="-641.893" y="2585.859" fill="#000" fill-opacity=".392" stroke="none" stroke-dasharray="none" stroke-dashoffset="0" stroke-linecap="square" stroke-linejoin="round" stroke-miterlimit="4" stroke-opacity="1" stroke-width="1" opacity="1" rx="15" ry="15" transform="matrix(0,-1,1,0,0,0)"/><g id="g5502" fill="#000" fill-opacity=".392" stroke="none" transform="translate(28.726213,0)"><rect id="rect5504" width="30" height="145" x="2493.594" y="496.893" fill="#000" fill-opacity=".392" stroke="none" stroke-dasharray="none" stroke-dashoffset="0" stroke-linecap="square" stroke-linejoin="round" stroke-miterlimit="4" stroke-opacity="1" stroke-width="1" opacity="1" rx="15" ry="15"/><rect id="rect5506" width="90" height="30" x="551.893" y="-2463.594" fill="#000" fill-opacity=".392" stroke="none" stroke-dasharray="none" stroke-dashoffset="0" stroke-linecap="square" stroke-linejoin="round" stroke-miterlimit="4" stroke-opacity="1" stroke-width="1" opacity="1" rx="15" ry="15" transform="matrix(0,1,-1,0,0,0)"/></g><g id="g5508" fill="#000" fill-opacity=".392" stroke="none" transform="translate(-30.46875,0)"><rect id="rect5510" width="90" height="30" x="551.893" y="-2708.125" fill="#000" fill-opacity=".392" stroke="none" stroke-dasharray="none" stroke-dashoffset="0" stroke-linecap="square" stroke-linejoin="round" stroke-miterlimit="4" stroke-opacity="1" stroke-width="1" opacity="1" rx="15" ry="15" transform="matrix(0,1,-1,0,0,0)"/><rect id="rect5512" width="90" height="30" x="551.893" y="-2768.125" fill="#000" fill-opacity=".392" stroke="none" stroke-dasharray="none" stroke-dashoffset="0" stroke-linecap="square" stroke-linejoin="round" stroke-miterlimit="4" stroke-opacity="1" stroke-width="1" opacity="1" rx="15" ry="15" transform="matrix(0,1,-1,0,0,0)"/></g><g id="g5514" fill="#000" fill-opacity=".392" stroke="none" transform="translate(28.726213,0)"><rect id="rect5516" width="90" height="30" x="303.925" y="-2463.594" fill="#000" fill-opacity=".392" stroke="none" stroke-dasharray="none" stroke-dashoffset="0" stroke-linecap="square" stroke-linejoin="round" stroke-miterlimit="4" stroke-opacity="1" stroke-width="1" opacity="1" rx="15" ry="15" transform="matrix(0,1,-1,0,0,0)"/><rect id="rect5518" width="90" height="30" x="358.925" y="-2523.594" fill="#000" fill-opacity=".392" stroke="none" stroke-dasharray="none" stroke-dashoffset="0" stroke-linecap="square" stroke-linejoin="round" stroke-miterlimit="4" stroke-opacity="1" stroke-width="1" opacity="1" rx="15" ry="15" transform="matrix(0,1,-1,0,0,0)"/></g><g id="g5520" fill="#000" fill-opacity=".392" stroke="none" transform="translate(-30.46875,0)"><rect id="rect5522" width="90" height="30" x="-448.925" y="2678.125" fill="#000" fill-opacity=".392" stroke="none" stroke-dasharray="none" stroke-dashoffset="0" stroke-linecap="square" stroke-linejoin="round" stroke-miterlimit="4" stroke-opacity="1" stroke-width="1" opacity="1" rx="15" ry="15" transform="matrix(0,-1,1,0,0,0)"/><rect id="rect5524" width="90" height="30" x="-448.925" y="2738.125" fill="#000" fill-opacity=".392" stroke="none" stroke-dasharray="none" stroke-dashoffset="0" stroke-linecap="square" stroke-linejoin="round" stroke-miterlimit="4" stroke-opacity="1" stroke-width="1" opacity="1" rx="15" ry="15" transform="matrix(0,-1,1,0,0,0)"/></g></g><g id="g5582" transform="translate(-1.3200004,-3.4932709)"><rect id="rect5373" width="30" height="145" x="2585.859" y="303.925" fill="#fff" fill-opacity="1" stroke="#fff" stroke-dasharray="none" stroke-dashoffset="0" stroke-linecap="square" stroke-linejoin="round" stroke-miterlimit="4" stroke-opacity="1" stroke-width="1" opacity="1" rx="15" ry="15"/><rect id="rect5377" width="90" height="30" x="-641.893" y="2585.859" fill="#fff" fill-opacity="1" stroke="#fff" stroke-dasharray="none" stroke-dashoffset="0" stroke-linecap="square" stroke-linejoin="round" stroke-miterlimit="4" stroke-opacity="1" stroke-width="1" opacity="1" rx="15" ry="15" transform="matrix(0,-1,1,0,0,0)"/><g id="g5460" transform="translate(28.726213,0)"><rect id="rect5381" width="30" height="145" x="2493.594" y="496.893" fill="#fff" fill-opacity="1" stroke="#fff" stroke-dasharray="none" stroke-dashoffset="0" stroke-linecap="square" stroke-linejoin="round" stroke-miterlimit="4" stroke-opacity="1" stroke-width="1" opacity="1" rx="15" ry="15"/><rect id="rect5387" width="90" height="30" x="551.893" y="-2463.594" fill="#fff" fill-opacity="1" stroke="#fff" stroke-dasharray="none" stroke-dashoffset="0" stroke-linecap="square" stroke-linejoin="round" stroke-miterlimit="4" stroke-opacity="1" stroke-width="1" opacity="1" rx="15" ry="15" transform="matrix(0,1,-1,0,0,0)"/></g><g id="g5474" transform="translate(-30.46875,0)"><rect id="rect5395" width="90" height="30" x="551.893" y="-2708.125" fill="#fff" fill-opacity="1" stroke="#fff" stroke-dasharray="none" stroke-dashoffset="0" stroke-linecap="square" stroke-linejoin="round" stroke-miterlimit="4" stroke-opacity="1" stroke-width="1" opacity="1" rx="15" ry="15" transform="matrix(0,1,-1,0,0,0)"/><rect id="rect5397" width="90" height="30" x="551.893" y="-2768.125" fill="#fff" fill-opacity="1" stroke="#fff" stroke-dasharray="none" stroke-dashoffset="0" stroke-linecap="square" stroke-linejoin="round" stroke-miterlimit="4" stroke-opacity="1" stroke-width="1" opacity="1" rx="15" ry="15" transform="matrix(0,1,-1,0,0,0)"/></g><g id="g5456" transform="translate(28.726213,0)"><rect id="rect5405" width="90" height="30" x="303.925" y="-2463.594" fill="#fff" fill-opacity="1" stroke="#fff" stroke-dasharray="none" stroke-dashoffset="0" stroke-linecap="square" stroke-linejoin="round" stroke-miterlimit="4" stroke-opacity="1" stroke-width="1" opacity="1" rx="15" ry="15" transform="matrix(0,1,-1,0,0,0)"/><rect id="rect5407" width="90" height="30" x="358.925" y="-2523.594" fill="#fff" fill-opacity="1" stroke="#fff" stroke-dasharray="none" stroke-dashoffset="0" stroke-linecap="square" stroke-linejoin="round" stroke-miterlimit="4" stroke-opacity="1" stroke-width="1" opacity="1" rx="15" ry="15" transform="matrix(0,1,-1,0,0,0)"/></g><g id="g5470" transform="translate(-30.46875,0)"><rect id="rect5411" width="90" height="30" x="-448.925" y="2678.125" fill="#fff" fill-opacity="1" stroke="#fff" stroke-dasharray="none" stroke-dashoffset="0" stroke-linecap="square" stroke-linejoin="round" stroke-miterlimit="4" stroke-opacity="1" stroke-width="1" opacity="1" rx="15" ry="15" transform="matrix(0,-1,1,0,0,0)"/><rect id="rect5413" width="90" height="30" x="-448.925" y="2738.125" fill="#fff" fill-opacity="1" stroke="#fff" stroke-dasharray="none" stroke-dashoffset="0" stroke-linecap="square" stroke-linejoin="round" stroke-miterlimit="4" stroke-opacity="1" stroke-width="1" opacity="1" rx="15" ry="15" transform="matrix(0,-1,1,0,0,0)"/></g></g></g></g></svg>